<?xml version="1.0" encoding="UTF-8" standalone="no"?>


<svg
   xmlns:dc="http://purl.org/dc/elements/1.1/"
   xmlns:cc="http://creativecommons.org/ns#"
   xmlns:rdf="http://www.w3.org/1999/02/22-rdf-syntax-ns#"
   xmlns:svg="http://www.w3.org/2000/svg"
   xmlns="http://www.w3.org/2000/svg"
   xmlns:sodipodi="http://sodipodi.sourceforge.net/DTD/sodipodi-0.dtd"
   xmlns:inkscape="http://www.inkscape.org/namespaces/inkscape"
   version="1.1"
   id="svg3766"
   width="1356.8905"
   height="1272.0848"
   viewBox="0 0 1356.8905 1272.0848"
   sodipodi:docname="pws-logo.svg"
   inkscape:version="0.92.3 (2405546, 2018-03-11)">
  <metadata
     id="metadata3772">
    <rdf:RDF>
      <cc:Work
         rdf:about="">
        <dc:format>image/svg+xml</dc:format>
        <dc:type
           rdf:resource="http://purl.org/dc/dcmitype/StillImage" />
        <dc:title></dc:title>
      </cc:Work>
    </rdf:RDF>
  </metadata>
  <defs
     id="defs3770" />
  <sodipodi:namedview
     pagecolor="#ffffff"
     bordercolor="#666666"
     borderopacity="1"
     objecttolerance="10"
     gridtolerance="10"
     guidetolerance="10"
     inkscape:pageopacity="0"
     inkscape:pageshadow="2"
     inkscape:window-width="3000"
     inkscape:window-height="1933"
     id="namedview3768"
     showgrid="false"
     inkscape:zoom="1.34425"
     inkscape:cx="678.44525"
     inkscape:cy="636.04242"
     inkscape:window-x="-9"
     inkscape:window-y="29"
     inkscape:window-maximized="1"
     inkscape:current-layer="svg3766" />
  <path
     style="fill:#01cb98;stroke-width:3.39222622"
     d="m 234.7321,1232.8282 c -53.95726,-59.32 -74.34268,-91.0838 -123.65252,-192.6709 C 73.247899,962.21734 51.706249,903.47854 37.651249,839.93624 4.5364691,690.22526 -4.9689009,560.7964 11.498659,483.83225 64.756009,234.92431 281.62616,52.49776 576.70191,8.39531 c 45.8301,-6.8498297 166.5824,-5.8253097 215.4064,1.82761 289.63399,45.3988 509.24439,236.12802 555.09039,482.08989 8.5447,45.8416 8.5326,136.4195 -0.024,179.66492 -29.1673,147.4138 -118.8846,276.63321 -254.8545,367.06577 -93.9355,62.4758 -202.94989,101.6518 -323.95759,116.4194 -37.1903,4.5387 -142.66,4.5336 -179.788,-0.01 -74.62139,-9.1292 -150.21013,-29.3866 -215.14125,-57.6568 -39.75892,-17.3106 -95.95242,-48.022 -116.54118,-63.6932 -6.11438,-4.654 -12.22039,-7.348 -13.5689,-5.9867 -1.34851,1.3614 -2.273,32.486 -2.05443,69.1657 0.40106,67.3007 6.06906,116.6627 16.93078,147.4481 2.63655,7.4727 4.19566,14.1849 3.46469,14.9158 -0.73097,0.731 -12.85049,-11.3375 -26.93228,-26.8189 z m 96.0334,-280.86876 c 6.35253,-6.3525 8.34452,-12.8336 7.03766,-22.8975 -0.65679,-5.0579 5.24925,-5.6667 8.22735,-0.8481 1.15309,1.8657 6.86916,3.3923 12.70243,3.3923 13.73767,0 26.30818,-11.6857 26.30818,-24.4563 0,-8.5436 0.78503,-9.2846 6.56144,-6.1931 19.92927,10.6658 43.38529,-4.24939 39.82094,-25.32132 -2.0737,-12.2592 -108.45424,-197.63836 -118.25913,-206.07879 -14.85232,-12.78544 -38.21726,-3.97946 -41.92835,15.80231 -2.02013,10.76825 -2.62118,11.18258 -11.40997,7.86518 -14.69307,-5.54602 -27.14693,-0.59215 -32.85491,13.06899 -2.73499,6.54575 -4.07081,13.36069 -2.96849,15.14429 1.10233,1.7836 0.47773,3.2429 -1.388,3.2429 -1.86572,0 -4.33565,-1.5265 -5.48873,-3.39222 -3.79112,-6.13417 -23.00426,-3.67789 -31.15946,3.98352 -14.65671,13.76928 -11.56833,21.92535 46.68908,123.3005 29.99712,52.19874 58.32252,98.34144 62.94535,102.53934 10.43761,9.4781 26.15543,9.8572 35.16461,0.848 z m 29.8119,-77.17313 c -9.97919,-11.47651 -84.08752,-142.9937 -84.08752,-149.22681 0,-13.81036 15.17657,-19.05868 24.61339,-8.51171 5.05843,5.65352 69.8942,115.84297 81.85383,139.11191 4.31566,8.39667 4.81289,12.6796 2.06763,17.80918 -4.47041,8.35302 -17.51566,8.78919 -24.44733,0.81743 z m -69.30677,-0.0519 c -2.13207,-1.37077 -17.87212,-26.61748 -34.97788,-56.10386 -35.01823,-60.36331 -37.86015,-71.90078 -17.71066,-71.90078 11.01051,0 12.04194,1.31982 43.25089,55.34376 17.58426,30.43909 31.97138,57.42547 31.97138,59.96971 0,5.70437 -9.23835,15.30573 -14.65926,15.2353 -2.19889,-0.0271 -5.7424,-1.17344 -7.87447,-2.54417 z m -25.02698,54.32753 c -0.0383,-1.3993 -18.96309,-35.09761 -42.05521,-74.88517 l -41.98566,-72.34099 -4.14991,12.57438 c -6.23772,18.90046 -2.75221,60.97536 6.5497,79.06393 10.77393,20.95104 34.79928,43.00535 55.53025,50.97455 19.12912,7.3534 26.21998,8.6062 26.11083,4.6133 z m 239.64305,-49.595 c 7.23104,-2.55639 29.93891,-12.25931 50.46181,-21.56204 74.5964,-33.81338 159.9499,-50.25461 303.6043,-58.48188 70.1199,-4.01585 108.6003,-13.22453 155.12519,-37.12273 77.7274,-39.92585 133.0267,-106.72991 159.0795,-192.17537 8.4435,-27.69203 9.2526,-35.17386 9.3314,-86.29267 0.079,-51.39314 -0.6655,-58.41268 -9.1057,-85.81176 -42.8212,-139.01021 -162.8333,-228.2207 -305.94989,-227.42666 -45.4742,0.25231 -85.4728,9.14506 -125.4982,27.90156 -63.8552,29.92357 -100.4675,63.64589 -148.939,137.18256 -79.15454,120.08631 -151.75019,203.52113 -207.25888,238.20454 -45.40916,28.37291 -65.32026,53.77523 -61.88037,78.94602 1.58761,11.61695 106.98161,199.81667 120.75914,215.63683 12.88069,14.79037 37.06618,19.20512 60.2707,11.0016 z m -38.30794,-33.51455 c -6.93503,-7.73533 -49.56419,-80.96623 -47.8505,-82.20046 0.51219,-0.36887 31.46127,-18.71281 68.77576,-40.76428 37.31449,-22.05147 83.06619,-49.94724 101.67029,-61.99063 18.6043,-12.04342 36.9223,-23.05967 40.7068,-24.48061 4.9264,-1.84968 13.6255,1.06889 30.6264,10.27523 29.0511,15.73175 57.2395,24.52949 103.2379,32.22095 82.4565,13.78771 129.9125,-5.30021 129.9125,-52.25392 0,-43.43002 -34.6217,-64.52048 -99.0821,-60.35771 -17.7658,1.14729 -44.9918,5.17295 -60.5022,8.94592 -15.5104,3.77297 -29.9681,6.85992 -32.1282,6.85992 -2.1601,0 5.3591,-9.54063 16.7093,-21.20141 55.7157,-57.24039 69.8961,-110.73885 35.4855,-133.87546 -30.2069,-20.31014 -80.9737,-2.35291 -112.6932,39.86185 -19.4592,25.89764 -27.0799,54.3533 -27.4434,102.47243 l -0.3008,39.83692 -32.5694,21.12013 c -36.098,23.40833 -177.67431,108.06333 -178.74724,106.88121 -6.37609,-7.02499 -48.87509,-85.55384 -48.87509,-90.31052 0,-10.43005 13.9967,-24.43621 46.22539,-46.25664 63.98784,-43.32293 134.45644,-122.27207 207.29234,-232.23875 66.4177,-100.27671 114.5788,-139.0199 201.0406,-161.72717 31.9456,-8.38981 94.9963,-7.59449 130.6007,1.64741 85.63679,22.22891 150.83819,75.40708 187.95439,153.29531 21.4908,45.09839 25.7558,65.32091 25.7558,122.12014 0,59.06445 -4.2907,77.90613 -29.3325,128.80513 -15.3213,31.14159 -21.4886,39.54657 -50.0429,68.20027 -60.6334,60.84425 -111.55449,81.78504 -214.04519,88.02372 -71.4499,4.34924 -113.7403,8.74475 -163.9987,17.04543 -71.3037,11.77652 -103.424,21.61808 -170.1425,52.13122 -38.23301,17.4855 -48.41796,18.86956 -58.23975,7.91437 z M 775.14711,651.07225 c -40.484,-6.90935 -98.9103,-25.36143 -94.4445,-29.82723 5.213,-5.21301 87.5244,-22.5752 115.5295,-24.36897 42.5117,-2.72298 61.2594,3.21291 67.2235,21.28418 7.8792,23.87428 -11.0839,35.64202 -56.0823,34.80244 -13.0601,-0.24356 -27.5619,-1.09436 -32.2262,-1.89042 z m -130.8232,-92.40926 c 4.3809,-50.22174 17.8299,-78.62915 46.0749,-97.32076 17.227,-11.40036 43.7895,-14.82247 50.6729,-6.52841 12.5637,15.13825 -21.9393,71.27067 -66.2263,107.74277 -14.2561,11.74049 -27.5015,21.92664 -29.4342,22.63592 -2.366,0.8683 -2.7212,-7.79843 -1.0873,-26.52952 z"
     id="path3785"
     inkscape:connector-curvature="0" />
</svg>
